<?xml version="1.0" encoding="utf-8"?>
<!-- Generator: Adobe Illustrator 27.4.0, SVG Export Plug-In . SVG Version: 6.00 Build 0)  -->
<svg version="1.1" id="_레이어_2" xmlns="http://www.w3.org/2000/svg" xmlns:xlink="http://www.w3.org/1999/xlink" x="0px"
	 y="0px" viewBox="0 0 210 40" style="enable-background:new 0 0 210 40;" xml:space="preserve">
<style type="text/css">
	.st0{fill:#FFFFFF;}
	.st1{fill:#434543;stroke:#434543;stroke-miterlimit:10;}
	.st2{fill:#353530;stroke:#353530;stroke-miterlimit:10;}
	.st3{fill:#55513F;stroke:#55513F;stroke-miterlimit:10;}
	.st4{fill:#242525;stroke:#242525;stroke-miterlimit:10;}
	.st5{fill:#3F3E32;}
	.st6{fill:#1B1C1C;}
	.st7{fill:#55513F;}
	.st8{fill:#D1C06C;}
	.st9{fill:#CDBD6A;}
	.st10{fill:#1B1C1C;stroke:#000000;stroke-miterlimit:10;}
	.st11{fill:#292B2B;stroke:#292B2B;stroke-miterlimit:10;}
	.st12{fill:#353530;}
	.st13{fill:#171818;}
	.st14{fill:#1F2120;stroke:#000000;stroke-miterlimit:10;}
	.st15{fill:#D7CDA7;}
	.st16{fill:#353530;stroke:#000000;stroke-miterlimit:10;}
	.st17{fill:#242525;}
	.st18{fill:#746A3F;}
	.st19{fill:#434543;}
	.st20{fill:#959495;}
	.st21{fill:#171818;stroke:#171818;stroke-miterlimit:10;}
	.st22{fill:#3F3E32;stroke:#3F3E32;stroke-miterlimit:10;}
	.st23{fill:#D0C068;}
	.st24{fill:#8C7C3B;}
	.st25{fill:#9C8B40;}
	.st26{fill:#EAE5CF;}
	.st27{fill:#E7E0C3;}
	.st28{fill:#B3A358;}
	.st29{fill:#74682C;}
	.st30{fill:#D1C467;}
	.st31{fill:#282A2A;}
</style>
<g id="_레이어_1-2">
	<g>
		<g>
			<path class="st0" d="M188.4,32.4h-7.1V22h-5.9c0.2,3.5,0.4,7,0.6,10.5H169c0.2-4.5,0.5-8.9,0.5-13.3c0-4.3,0.2-8.7-1.2-13h7.8
				c-0.2,3.1-0.4,6-0.5,9c-0.1,2,0,2.1,2,2c0.2,0,0.3,0,0.5,0c3.9-0.1,3.5,0.6,3.6-3.6c0-1.3,0-2.5-0.1-3.8
				c-0.1-1.2-0.4-2.3-0.7-3.6h8C187,14.8,187.3,23.5,188.4,32.4L188.4,32.4z"/>
			<path class="st0" d="M191.6,19.4c0-2,0-3.9,0-5.9c0-3.9,3-7.2,7.1-7.5c2.9-0.2,5.8-0.6,8.4,1.3c2,1.4,2.9,3.1,2.8,5.6
				c-0.2,4.1-0.1,8.3,0.1,12.5c0.2,3.2-1.1,5.4-4.1,6.6c-3,1.2-5.9,1.4-9,0.3c-3.4-1.2-5.3-3.7-5.3-7.1
				C191.6,23.3,191.6,21.4,191.6,19.4L191.6,19.4z M203.7,19.8C203.7,19.8,203.6,19.8,203.7,19.8c-0.1-2.6-0.2-5.1-0.3-7.7
				c0-1.1-0.7-1.4-1.7-1.5c-2.1-0.2-3.5,0.8-3.6,3.2c-0.2,3.7-0.1,7.4,0,11.1c0,0.6,0.2,1.3,0.4,1.8c0.5,1.4,1.8,1.9,4,1.6
				c1.4-0.2,1.1-1.3,1.1-2.1C203.6,24.1,203.7,21.9,203.7,19.8L203.7,19.8z"/>
			<path class="st0" d="M165.2,19.5c0,1.7,0,3.5,0,5.2c0,4.9-2.1,7.3-7.1,8.2c-2.5,0.4-5,0.2-7.3-0.8c-2.4-1-3.8-3-3.9-5.4
				c-0.2-4.8-0.3-9.7,0-14.5c0.2-3.4,3.2-5.9,6.8-6c1.3-0.1,2.6,0,3.9-0.1c4.2-0.3,8.1,3.9,7.7,7.8C165,15.7,165.2,17.6,165.2,19.5
				C165.2,19.5,165.2,19.5,165.2,19.5L165.2,19.5z M153,19.4C153.1,19.4,152.9,19.4,153,19.4c0,2.3,0.1,4.5,0.2,6.8
				c0.1,1.9,0.9,2.5,2.9,2.4c1.6-0.1,2.6-0.9,2.7-2.9c0.2-3.9,0.2-7.9,0.1-11.8c0-0.8-0.3-1.6-0.7-2.2c-0.7-1.4-2-1.1-3.3-1
				c-1.1,0.1-1.7,0.7-1.8,1.9C153.1,14.8,153.1,17.1,153,19.4L153,19.4z"/>
			<path class="st0" d="M90.4,24.6v7.9c-2.1,0-4.2-0.1-6.3,0c-1.2,0.1-1.4-0.2-1-1.3c0.4-1.2,0.7-2.5,0.8-3.7
				c0.1-4.7,0.1-9.5,0-14.2c0-1.5-0.6-3.1-0.9-4.8c0.9,0,1.7,0,2.5,0c3,0.1,5.9,0.1,8.9,0.3c3.5,0.3,6.7,2.8,6.5,7.4
				c-0.1,2.5-0.3,4.8-2.6,6.4c-0.3,0.2-0.4,0.8-0.4,1.1c0.1,0.8,0.4,1.5,0.7,2.2c1.2,2.1,2.4,4.2,3.7,6.5c-2.5,0-4.8,0.1-7.1-0.1
				c-0.3,0-0.8-0.8-0.8-1.3C94.1,28.4,92.4,26.6,90.4,24.6L90.4,24.6z M90.4,13c-0.2,1.7-0.3,3.2-0.5,4.7c-0.2,2.5,0,2.6,2.6,2.4
				c1.6-0.2,2-1.2,1.9-2.4c-0.1-1.6,0.8-3.5-1.3-4.6C92.8,13,92.6,13,92.4,13C91.8,13,91.1,13,90.4,13L90.4,13z"/>
			<path class="st0" d="M74.8,14.1c-0.3-0.8-0.5-1.4-0.7-1.9c-0.9-2.2-2.8-2.9-4.8-1.5c-1.1,0.8-2.1,2-2.6,3.3
				c-1.4,3.9-1.5,7.8,0.4,11.6c0.5,0.9,1.2,1.8,2,2.4c1.8,1.3,3.8,0.7,4.7-1.3c0.3-0.7,0.6-1.3,1-2.1c1.7,0.5,3.3,0.9,4.9,1.4
				c1.1,0.4,1.3,1.1,0.7,2.1c-1.9,3.5-5.3,4.3-8.8,4.6c-5.3,0.4-9.2-2.3-10.7-7.2c-1.3-4.4-1.3-8.8,0.2-13.2
				c1.3-3.8,3.9-6.1,8.1-6.4c3.1-0.3,6.3-0.3,9,1.7c0.6,0.5,1.2,0.9,1.6,1.5c0.5,0.7,0.8,1.6,1.2,2.4c-0.8,0.3-1.5,0.7-2.3,1
				C77.4,13.1,76.2,13.6,74.8,14.1L74.8,14.1z"/>
			<path class="st0" d="M112.4,12.9v5.7c2.1-0.3,4.1-0.5,6.2-0.7v5.3c-2.1-0.3-4.1-0.7-6.2-1v6h8.3c0.2,1.4,0.5,2.9,0.7,4.4h-16.2
				c0.2-2,0.5-4,0.7-6c0.6-5.7,0.6-11.4-0.8-17c-0.2-1,0.2-1.2,1-1.2c4.7,0.1,9.4,0.1,14.1,0.2c0.9,0,1.2,0.4,1,1.2
				c-0.3,1.1-0.5,2.1-0.8,3.2L112.4,12.9L112.4,12.9z"/>
			<path class="st0" d="M122.9,6.1c2.8,0,5.4,0,8.1,0.1c0.3,0,0.8,0.9,0.7,1.2c-0.8,2.6,1.2,4.2,2.2,6.4c2.4-2.2,2.5-4.9,2.9-7.6
				h8.5c-0.1,0.3-0.1,0.5-0.2,0.7c-2.5,4.1-5,8.2-7.5,12.3c-0.4,0.7-0.6,1.7-0.5,2.6c0.2,3.5,0.5,6.9,0.8,10.6h-7.5
				c0-0.2-0.1-0.5-0.1-0.9c0.2-3.5,0.3-6.9,0.6-10.4c0.1-1.3-0.3-2.3-1-3.4c-1.6-2.7-3.1-5.4-4.6-8.1C124.6,8.4,123.8,7.4,122.9,6.1
				L122.9,6.1z"/>
		</g>
		<g>
			<path class="st0" d="M10.6,39.4c0.3,0.2,0.6,0.4,1,0.6h-1.3C10.4,39.8,10.5,39.6,10.6,39.4L10.6,39.4z"/>
			<path class="st1" d="M54.4,15.3c-0.2,1-0.5,1.9-0.7,2.9c-1.8,0.5-1.8,1.7-1.6,3.1l-0.7,0.9c-0.1,0-0.2,0-0.3,0
				c-0.2,0-0.5,0-0.7,0c0.1-1,0.1-2,0.2-3.1c0.3-0.8,0.5-1.5,0.8-2.3c0.1,0.4,0.3,0.7,0.4,1.1c0.2,0,0.3,0,0.5,0v-3.3
				c-0.2-1.2-0.3-2.5-1.7-3.2c0-0.3,0-0.6,0-0.9c0.8,0.7,1.6,1.3,2.3,2.1c0.5,0.6,0.9,1.3,1.3,2C54.4,14.9,54.4,15.1,54.4,15.3
				L54.4,15.3z"/>
			<path class="st1" d="M42.9,6.8c0.8,1.4,2.3,1.7,3.8,1.9c0.5,0.1,1,0.2,1.5,0.4c-0.1,0.5-0.2,1-0.3,1.5c-2.1-0.6-4.1-1.2-6.2-1.9
				c0.2-0.6,0.4-1.2,0.6-1.8C42.5,6.8,42.7,6.8,42.9,6.8z"/>
			<path class="st2" d="M42.3,5.5c0,0.1,0.1,0.2,0.1,0.3c-0.2,0.1-0.4,0.2-0.7,0.3c-0.2,0-0.4,0-0.7,0c-0.8,0-1.5,0-2.3,0
				c-1.7-0.4-1.9-1.9-2.6-3.1c0-0.1,0-0.2,0-0.3c0.5-0.2,0.9-0.4,1.4-0.7c0.1,0.2,0.3,0.3,0.3,0.5c1,2.6,1.1,2.6,4,2.5
				C41.9,5,42,5.1,42,5.2C42.1,5.3,42.2,5.4,42.3,5.5L42.3,5.5z"/>
			<path class="st3" d="M47.9,10.5c0.1-0.5,0.2-1,0.3-1.5c0.9,0.5,1.7,1,2.6,1.5c0,0.3,0,0.6,0,0.9c-0.4-0.1-0.9-0.2-1.3-0.2
				C48.9,11,48.4,10.8,47.9,10.5z"/>
			<path class="st4" d="M37.6,2c-0.5,0.2-0.9,0.4-1.4,0.7c-0.9-0.2-1.7-0.5-2.6-0.7c0-0.2,0-0.4,0-0.5c0.9-0.1,1.8-0.4,2.6-0.3
				C36.7,1.2,37.1,1.7,37.6,2z"/>
			<path class="st5" d="M33.6,1.5c0,0.2,0,0.4,0,0.5c-0.3-0.1-0.6-0.2-0.9-0.3c-0.6-0.3-1.2-0.5-1.8-0.8c0.5-0.1,0.9-0.2,1.4-0.4
				C32.7,0.8,33.2,1.1,33.6,1.5z"/>
			<path class="st6" d="M32.3,0.5c-0.5,0.1-0.9,0.2-1.4,0.4c-0.1,0-0.2,0-0.2-0.1c-0.3-0.2-0.6-0.4-1-0.6c0.5,0,1.1-0.1,1.6-0.1
				C31.7,0.2,32,0.4,32.3,0.5L32.3,0.5z"/>
			<path class="st3" d="M41.7,6.1c0.2-0.1,0.4-0.2,0.7-0.3c0.2,0.3,0.4,0.6,0.5,0.9c-0.2,0-0.4,0-0.6,0c-0.1,0-0.1,0-0.2,0
				C42,6.6,41.9,6.4,41.7,6.1L41.7,6.1z"/>
			<path class="st0" d="M54.4,15.3c0-0.2,0-0.4,0-0.6l0.5,0.3C54.7,15.1,54.6,15.2,54.4,15.3z"/>
			<path class="st7" d="M42.3,5.5c-0.1-0.1-0.2-0.2-0.2-0.3C42.1,5.3,42.2,5.4,42.3,5.5z"/>
			<path class="st8" d="M3.8,30.5c-0.2-0.4-0.5-0.9-0.7-1.3C3,28.7,3,28.1,2.7,27.6c-1.4-2.4-2.5-4.8-1.6-7.7
				c0.1-0.3-0.2-0.8-0.3-1.2l0,0c0.3-0.2,0.8-0.3,1-0.6c0.8-1.1,1.5-2.3,2.3-3.5c0.1-0.2,0.2-0.4,0.4-0.6c0.1-0.1,0.2-0.2,0.2-0.2
				c0.9-1,1.7-2,2.6-2.9c0.5-0.4,0.9-0.9,1.4-1.3c1.1,0.3,2.1,0.7,3.2,1l0,0c0.1,0.5,0.2,1,0.3,1.9c0.4-0.7,0.6-1,0.7-1.3
				c0.6,0.7,1.9,0.8,1.8,2.1c0,0.1,0.7,0.3,1.1,0.5c0.2,0.4,0.4,0.9,0.6,1.3c0.2,0.5,0.5,1,0.7,1.5c-0.3,0.7-0.7,1.3-1,2
				c-0.9,0.7-1.1,1.7-1,2.8c0.1,1.1,0.4,2.3,0.2,3.4c-0.3,1.3-1.1,2.6-1.6,3.9c-0.2,0.5-0.1,1.1-0.2,1.6c-0.6,0.5-1.1,1.1-1.8,1.6
				c-1.6,1.2-1.5,1.9,0.4,2.8c0,0.8,0,1.6,0,2.5c-0.5,0.1-1.1,0.2-1.6,0.4c-2.5-1-4.3-2.7-5.3-5.2C5,31.6,4.3,31.1,3.8,30.5
				L3.8,30.5z"/>
			<path class="st9" d="M15.7,13.7c-0.4-0.2-1.1-0.3-1.1-0.5c0.1-1.3-1.2-1.4-1.8-2.1c-0.3-0.2-0.7-0.4-1-0.6l0,0c0-0.4,0-0.8,0-1.3
				c1.7-0.4,0.8-1.9,1.3-2.9c0-0.5-0.1-1-0.1-1.5c0.6-0.6,1.2-1.1,1.8-1.7c0.6,0,1.3,0.2,1.9,0c0.6-0.2,1.1-0.8,1.6-1.2
				c0-0.1,0.1-0.2,0.1-0.3C19,1.7,19.5,1.5,20,1.4c0.3,0.1,0.6,0.2,0.9,0.3c0.1,0,0.2,0.1,0.4,0.1c0.4,0.1,0.8,0.1,1.3,0.2
				c0.2,0,0.4,0,0.6,0c0.2,0,0.4,0,0.7,0c0.1-0.1,0.2-0.1,0.4-0.2c1.1,0.4,2.2,1.5,3.5,0.3l0,0c0.6,0.7,1.1,1.5,1.7,2.2
				c-0.1,0.2-0.3,0.4-0.4,0.6c-0.2,0-0.4,0-0.6-0.1c-0.1-0.1-0.2-0.2-0.3-0.3C26,4.3,23.9,4,21.8,4c-2.5-0.1-5.1,1.8-6,4.1
				c-0.1,0.6-0.1,1.3-0.2,1.9c0,0.4,0,0.8,0.1,1.2c0.1,0.3,0.1,0.6,0.2,0.9c0,0.3,0,0.6,0.1,0.9C15.8,13.3,15.8,13.5,15.7,13.7
				L15.7,13.7z"/>
			<path class="st2" d="M10.6,37.5c0.5-0.1,1.1-0.2,1.6-0.4c1,0,2.1,0.2,3.1,0.1c1.7-0.2,3.3-0.5,5-0.7c0.1,0.3,0.2,0.6,0.3,0.9
				c-0.2,0-0.4,0.1-0.6,0.1c-0.9,0.2-1.7,0.4-2.6,0.5c-0.6,0.1-1.3,0.2-1.9,0.3c-1.6,0-3.2,0.1-4.9,0.1c-0.1-0.1-0.2-0.2-0.3-0.3
				C10.3,37.9,10.5,37.7,10.6,37.5L10.6,37.5z"/>
			<path class="st10" d="M0.8,18.8c0.1,0.4,0.4,0.8,0.3,1.2c-0.9,2.9,0.2,5.3,1.6,7.7C3,28.1,3,28.7,3.1,29.2
				c-2.2-1.1-2.6-3.4-2.8-5.4C0.1,22.2-0.5,20.3,0.8,18.8L0.8,18.8z"/>
			<path class="st6" d="M11.9,9.3c0,0.4,0,0.9,0,1.3c-1-0.3-2.1-0.7-3.1-1c0.3-0.8,0.5-1.6,1-2.3c0.6-0.7,1.4-1.2,2.1-1.8
				c0.1-0.1,0.1-0.2,0.2-0.4h0.1l0-0.1c0.1,0,0.2-0.1,0.3-0.1c0.1,0,0.2,0,0.3,0c0.1,0,0.1,0.1,0.2,0.1c0,0.5,0.1,1,0.1,1.5
				c-0.3,0.2-0.6,0.5-0.9,0.6C10.6,7.7,10.5,8,11.9,9.3L11.9,9.3z"/>
			<path class="st11" d="M10.6,37.5c-0.1,0.2-0.2,0.5-0.4,0.7c-2.3-0.3-3.5-2-4.7-3.6c-0.8-1.2-1.2-2.7-1.8-4
				c0.5,0.6,1.3,1.1,1.5,1.7C6.3,34.7,8.1,36.5,10.6,37.5L10.6,37.5z"/>
			<path class="st12" d="M23.9,2c-0.2,0-0.4,0-0.7,0c-0.2-0.1-0.4-0.1-0.7-0.2c-0.3,0-0.6,0-0.9-0.1c0.2-0.2,0.4-0.6,0.6-0.6
				c1.7-0.2,3.5-0.2,5.2-0.3c0.1,0,0.3,0,0.4,0c0,0.4,0,0.8,0,1.3c-1.3,1.2-2.4,0.1-3.5-0.3C24.1,1.8,24,1.9,23.9,2L23.9,2z"/>
			<path class="st13" d="M18.3,2.1c-0.5,0.4-1,1-1.6,1.2c-0.5,0.2-1.2,0-1.9,0c-0.8-0.4-1.6-1.3-2.3,0.1c-0.2-0.4-0.4-0.8-0.5-1.3
				c0.5-0.1,1-0.1,1.6-0.1c1.3,0,2.5,0.1,3.8,0.1c0.2,0,0.5,0,0.7,0C18.1,2,18.2,2.1,18.3,2.1L18.3,2.1z"/>
			<path class="st14" d="M4.7,13.8c-0.1,0.1-0.2,0.2-0.2,0.2c-0.1,0.2-0.2,0.4-0.4,0.6c-0.8,1.2-1.5,2.4-2.3,3.5
				c-0.2,0.3-0.6,0.4-1,0.6c0.1-0.5,0.1-1.2,0.4-1.6c0.9-1.3,1.9-2.5,2.9-3.8C4.3,13.5,4.5,13.7,4.7,13.8L4.7,13.8z"/>
			<path class="st15" d="M12.5,3.3c0.7-1.4,1.5-0.5,2.3-0.1c-0.6,0.6-1.2,1.1-1.8,1.7c-0.1,0-0.1,0-0.2-0.1c0-0.1,0-0.2,0-0.3
				c-0.1-0.1-0.1-0.2-0.2-0.3c-0.1-0.1-0.1-0.2-0.2-0.4C12.5,3.7,12.5,3.5,12.5,3.3L12.5,3.3z"/>
			<path class="st16" d="M5.1,13.8c-0.3-0.2-0.6-0.4-0.9-0.6c1.5-1.2,3.1-2.4,4.6-3.6C7.6,11,6.4,12.4,5.1,13.8L5.1,13.8z"/>
			<path class="st13" d="M18,0.7c0.8-1.2,1.6-0.8,2.3,0C20.2,0.9,20,1,19.8,1.1c-0.1,0-0.3,0-0.4,0c-0.4,0-0.7,0-1.1,0
				C18.2,1.1,18.1,1,18,1C18.1,0.9,18.1,0.8,18,0.7L18,0.7z"/>
			<path class="st17" d="M27.8,0.8c-0.1,0-0.3,0-0.4,0c0.4-0.2,0.9-0.4,1.3-0.7c0.3,0,0.7,0.1,1,0.1c0.3,0.2,0.6,0.4,1,0.6
				c-0.3,0-0.6,0-0.9,0c-0.2,0-0.5,0-0.7,0C28.6,0.8,28.2,0.8,27.8,0.8z"/>
			<path class="st2" d="M19.8,1.1c0.2-0.1,0.4-0.2,0.7-0.3c0.9,0,1.6,0.1,0.7,1c-0.4-0.1-0.7-0.2-1.1-0.3c-0.1,0-0.2-0.1-0.4-0.1
				C19.8,1.2,19.8,1.1,19.8,1.1L19.8,1.1z"/>
			<path class="st7" d="M18,0.7c0.1,0.1,0.1,0.2,0,0.2c0,0.3,0,0.7,0,1c-0.2,0-0.5,0-0.7,0C17.6,1.6,17.8,1.2,18,0.7L18,0.7z"/>
			<path class="st18" d="M21.6,1.7c0.3,0,0.6,0,0.9,0.1c0,0.1,0,0.2,0,0.2c-0.4-0.1-0.8-0.1-1.3-0.2C21.4,1.8,21.5,1.7,21.6,1.7
				L21.6,1.7z"/>
			<path class="st19" d="M12.5,3.9c0.1,0.1,0.1,0.2,0.2,0.4c-0.1,0.1-0.1,0.2-0.1,0.3c0,0-0.1,0.1-0.1,0.1c-0.1,0-0.2,0-0.3-0.1
				C12.2,4.3,12.4,4.1,12.5,3.9L12.5,3.9z"/>
			<path class="st20" d="M12.1,5.2C12,5.3,12,5.4,11.9,5.5C12,5.4,12,5.3,12.1,5.2z"/>
			<path class="st10" d="M12.3,2.8c0.1,0.1,0.1,0.2,0.2,0.3c0,0.4,0,0.8,0,1.2c0,0.3-0.1,0.5-0.1,0.7C12.3,4.3,12.3,3.6,12.3,2.8z"
				/>
			<path class="st2" d="M50.4,22.3c0.2,0,0.5,0,0.7,0c-1.7,2-3.5,4.1-5.2,6.1c-0.1,0.1-0.2,0.2-0.3,0.3c-0.9,0.7-1.8,1.3-2.8,2
				l-1,0.4c-0.2,0-0.5,0-0.7-0.1c0.7-0.7,1.4-1.5,2.1-2.2c1.1-1,2.3-2,3.4-2.9c0.8-0.9,1.6-1.7,2.4-2.6C49.6,22.9,50,22.6,50.4,22.3
				L50.4,22.3z"/>
			<path class="st2" d="M33.2,35.6c-1.8,0.3-3.6,0.7-5.5,1l-1.9,0.2c0.1-0.4,0.2-0.8,0.3-1.1c1.1-0.1,2.2-0.3,3.2-0.4
				c1.3-0.2,2.7-0.4,4-0.6c0,0.1,0,0.2,0,0.3C33.3,35.1,33.3,35.3,33.2,35.6z"/>
			<path class="st21" d="M39.4,33.1l-2.9,1.3c-0.6,0.3-1.1,0.5-1.7,0.8c-0.6-0.1-1.2-0.3-1.8-0.4c0.9-0.7,1.8-1.3,2.7-2
				c0.7-0.2,1.4-0.4,2.1-0.6c1.3-0.4,2.5-0.9,3.8-1.4c0,0.1,0,0.3,0.1,0.4C41,31.8,40.2,32.5,39.4,33.1L39.4,33.1z"/>
			<path class="st22" d="M26.1,35.6c-0.1,0.4-0.2,0.8-0.3,1.1c-0.4,0-0.9,0.1-1.3,0.1c-1.3,0.2-2.6,0.4-3.9,0.5
				c-0.1-0.3-0.2-0.6-0.3-0.9c1.2-0.3,2.4-0.6,3.6-0.9c0.2,0,0.4-0.1,0.6-0.1C24.5,35.5,26.1,35.6,26.1,35.6z"/>
			<path class="st0" d="M43.3,30.5c0.9-0.6,1.7-1.3,2.6-1.9"/>
			<path class="st23" d="M47.9,10.5c0.5,0.2,1.1,0.5,1.6,0.7c0.6,1,1.1,2,1.7,3c-0.9,0.5-1.8,1.1-0.4,2c0.2,0.1,0.5,0.2,0.7,0.4
				c0,0.1,0,0.2,0,0.3c-0.3,0.8-0.5,1.5-0.8,2.3c-0.7,0.4-1.5,0.8-2.2,1.2v-2.7c-0.9-0.2-1.9-0.5-2.9-0.8c-0.3-0.7-0.6-1.6-1.7-1.3
				c-0.4-1.4-0.7-2.9-1.2-4.3c-0.1-0.3-0.5-0.6-0.8-0.6c-1.2-0.3-1.6-1.2-1.9-2.3c0.5,0.1,1.1,0.2,1.6,0.3
				C43.8,9.3,45.8,9.9,47.9,10.5L47.9,10.5z"/>
			<path class="st5" d="M48.5,20.4c0.7-0.4,1.5-0.8,2.2-1.2c-0.1,1-0.1,2-0.2,3.1c-0.4,0.3-0.8,0.6-1.3,1c0-0.3,0-0.6-0.1-0.9
				c-0.2-0.6-0.5-1.1-0.7-1.7C48.5,20.5,48.5,20.5,48.5,20.4L48.5,20.4z"/>
			<path class="st15" d="M51.2,14.3c-0.6-1-1.1-2-1.7-3c0.4,0.1,0.9,0.2,1.3,0.2c1.3,0.7,1.4,2,1.7,3.2c-0.2-0.1-0.4-0.2-0.6-0.3
				c-0.1,0-0.3,0-0.4,0C51.3,14.3,51.3,14.3,51.2,14.3L51.2,14.3z"/>
			<path class="st20" d="M51.8,14.4c0.2,0.1,0.4,0.2,0.6,0.3c0,1.1,0,2.2,0,3.3c-0.2,0-0.3,0-0.5,0c-0.1-0.4-0.3-0.7-0.4-1.1
				c0-0.1,0-0.2,0-0.3c0.1-0.1,0.2-0.2,0.3-0.4c0-0.5,0-1-0.1-1.5C51.8,14.6,51.8,14.5,51.8,14.4L51.8,14.4z"/>
			<path class="st24" d="M41.7,8.7c-0.5-0.1-1.1-0.2-1.6-0.3c0-0.1,0-0.2,0-0.3c0-0.3,0-0.6,0-1c0.5,0,0.9,0,1.4,0
				c0.2-0.1,0.5-0.2,0.7-0.3c0.1,0,0.1,0,0.2,0C42.1,7.4,41.9,8,41.7,8.7L41.7,8.7z"/>
			<path class="st9" d="M36.2,3c0.7,1.2,1,2.7,2.6,3.1c0,0.3,0,0.7,0,1c0,0.1,0,0.2,0,0.2c-1-0.1-2-0.2-3-0.5
				c-1.2-0.3-2.5,0.1-2.4,1c0.1,0.9,0.3,1.8,0.3,2.6c0,0.4-0.3,0.8-0.4,1.3L33.1,11c-0.1-0.1-0.1-0.3-0.2-0.4
				c-0.2-0.9-0.5-1.8-0.7-2.8c0.1-1.3,0-2.7,1.3-3.6C34.4,3.9,35.3,3.4,36.2,3L36.2,3z"/>
			<path class="st24" d="M36.2,3c-0.9,0.4-1.7,0.8-2.6,1.2c-0.7-0.4-1.3-0.9-2-1.3c0-0.1,0-0.2,0-0.2c0.4-0.4,0.7-0.7,1.1-1.1
				C33,1.8,33.3,1.9,33.6,2c0.9,0.2,1.7,0.5,2.6,0.7C36.2,2.8,36.2,2.9,36.2,3z"/>
			<path class="st25" d="M38.8,7.1c0-0.3,0-0.7,0-1c0.8,0,1.5,0,2.3,0c0.1,0.3,0.3,0.6,0.4,0.9c-0.5,0-0.9,0-1.4,0
				C39.7,7.1,39.3,7.1,38.8,7.1z"/>
			<path class="st20" d="M41.4,7.1c-0.1-0.3-0.3-0.6-0.4-0.9c0.2,0,0.4,0,0.7,0c0.1,0.2,0.3,0.4,0.4,0.7C41.9,6.9,41.7,7,41.4,7.1
				L41.4,7.1z"/>
			<path class="st25" d="M32.7,1.7c-0.4,0.4-0.7,0.7-1.1,1.1C30.3,2.5,29,2.3,27.7,2l0,0c0-0.4,0-0.8,0-1.3c0.4,0,0.8,0,1.2,0.1
				c0.2,0,0.5,0,0.7,0c0.3,0,0.6,0,0.9,0c0.1,0,0.2,0.1,0.2,0.1C31.5,1.1,32.1,1.4,32.7,1.7L32.7,1.7z"/>
			<path class="st26" d="M41.7,30.8c-0.3,0.2-0.7,0.4-1,0.7c-1,0.4-1.9,0.7-2.9,1.1c-0.5,0.2-1.1,0.3-1.6,0.5
				c-1.4,0.1-2.8,0.2-4.2,0.3c-0.2,0.1-0.4,0.2-0.7,0.3c-0.2,0-0.4,0-0.6,0c-1.1,0-2.2,0.2-3.2-0.1c-2-0.6-2.7,0.2-3,1.9
				c-0.2,0-0.4,0.1-0.6,0.1c-1.4-0.6-2.7-1.3-4.1-1.9c-0.2-0.1-0.5,0.3-0.8,0.4c-0.5,0.4-1,0.8-1.5,1.1c-1.6,1.1-3.6,0.7-4.8-0.8
				c0-0.1-0.3,0.1-0.5,0.1c-2-0.9-2.1-1.7-0.4-2.8c0.6-0.4,1.2-1,1.8-1.6c0.3-0.1,0.7-0.2,1-0.4c2.1,0.4,2.3-1.3,2.8-2.6
				c0.4-1,0.9-1.6,2.1-1c1.9,1,3.5,0.8,5.1-0.5c2.5,0,5-0.1,7.5-0.1c1.1,0,2.2,0,3.2,0c0.5-0.1,1.1-0.1,1.6-0.2
				c1.4,0.3,2.7,0.7,4.1,0.9c2,0.2,2.6,0.6,2.7,2.3C43,29.3,42.4,30.1,41.7,30.8L41.7,30.8z"/>
			<path class="st5" d="M32.2,7.8c0.2,0.9,0.5,1.8,0.7,2.8c0.1,0.1,0.1,0.3,0.2,0.4c0.1,0.3,0.1,0.6,0.2,0.9c0,0.2,0,0.4,0,0.6
				c-0.9,0.8,0.2,1.1,0.4,1.7c0,0.1-0.1,0.2-0.1,0.3c-1.2,0.2-2.3,0.1-2.7-1.4c-0.2-0.8-0.5-1.7-0.7-2.5c-0.7-3-3.2-3.5-5.8-3.8
				c-0.6-0.8-1.2-0.9-2-0.2c-0.2,0-0.5,0-0.7,0c-1.5-0.5-1.7,1-2.5,1.5c-0.3,0.2-0.9,0.3-0.9,0.5c0,2.3-0.7,4.7,1.2,6.7
				c-0.6,0.1-1.2,0.2-1.9,0.3c0.1,0.4,0.1,1,0.2,1.6c-0.3-0.2-0.6-0.5-0.9-0.7c-0.2-0.5-0.5-1-0.7-1.5c-0.1-0.6-0.3-1.3-0.4-1.9
				c0-0.3,0-0.6-0.1-0.9c-0.1-0.3-0.1-0.6-0.2-0.9c0-0.4,0-0.8-0.1-1.2c0.4-0.5,0.7-1,1.1-1.5c-0.3-0.1-0.6-0.3-0.9-0.4
				c0.9-2.3,3.6-4.2,6-4.1C23.9,4,26,4.3,28.1,4.5c0.1,0.1,0.2,0.2,0.3,0.3c0.2,0,0.4,0,0.6,0.1C30.1,5.8,31.2,6.8,32.2,7.8
				L32.2,7.8z"/>
			<path class="st12" d="M14.5,29.9c-0.3,0.1-0.7,0.2-1,0.4c0.1-0.6,0-1.1,0.2-1.6c0.5-1.3,1.3-2.6,1.6-3.9c0.2-1.1,0-2.2-0.2-3.4
				c-0.1-1.1,0.1-2.1,1-2.8c0.9,0.1,2-0.5,2.3,0.9c0,2.3,2.2,2.7,3.5,3.8l1.3,2.5c-1.2-0.5-2.4-1-3.6-1.6c-0.7-0.5-1.5-1.2-2.2,0
				c-0.3,0.5-0.8,1-1,1.5C15.7,27.1,15.1,28.5,14.5,29.9z"/>
			<path class="st27" d="M12.2,34.7c0.2,0,0.5-0.2,0.5-0.1c1.1,1.5,3.2,1.9,4.8,0.8c0.5-0.4,1-0.8,1.5-1.1c0.3-0.2,0.6-0.5,0.8-0.4
				c1.4,0.6,2.7,1.2,4.1,1.9c-1.2,0.3-2.4,0.6-3.6,0.9c-1.7,0.2-3.3,0.5-5,0.7c-1,0.1-2.1,0-3.1-0.1C12.2,36.3,12.2,35.5,12.2,34.7
				L12.2,34.7z"/>
			<path class="st28" d="M18.4,19.4c-0.3-1.4-1.5-0.8-2.3-0.9c0.3-0.7,0.7-1.3,1-2c0.3,0.2,0.6,0.5,0.9,0.7v0
				c0.1,0.1,0.2,0.2,0.3,0.2c0.2,0.2,0.4,0.5,0.7,0.7C18.8,18.6,18.6,19,18.4,19.4L18.4,19.4z"/>
			<path class="st6" d="M11.8,10.6c0.3,0.2,0.7,0.4,1,0.6c-0.2,0.3-0.3,0.6-0.7,1.3C12,11.6,11.9,11.1,11.8,10.6L11.8,10.6z"/>
			<path class="st7" d="M15.9,13.1c0.1,0.6,0.3,1.3,0.4,1.9c-0.2-0.4-0.4-0.9-0.6-1.3C15.8,13.5,15.8,13.3,15.9,13.1z"/>
			<path class="st12" d="M4.1,14.7c0.1-0.2,0.2-0.4,0.4-0.6C4.3,14.3,4.2,14.5,4.1,14.7z"/>
			<path class="st28" d="M32.2,7.8c-1.1-1-2.1-2-3.2-3c0.1-0.2,0.3-0.4,0.4-0.6c0.6,0,1.2,0,1.7,0c0.2-0.5,0.3-0.9,0.5-1.3
				c0.7,0.4,1.3,0.9,2,1.3C32.2,5.1,32.3,6.5,32.2,7.8z"/>
			<path class="st5" d="M31.6,2.9c-0.1,0.4-0.3,0.8-0.5,1.3c-0.5,0-1.1,0-1.7,0c-0.6-0.7-1.1-1.5-1.7-2.2c1.3,0.2,2.6,0.5,3.8,0.7
				C31.6,2.8,31.6,2.9,31.6,2.9L31.6,2.9z"/>
			<path class="st8" d="M11.8,9.3C10.4,8,10.5,7.7,12.2,7c0.3-0.1,0.6-0.4,0.9-0.6C12.6,7.4,13.5,8.9,11.8,9.3z"/>
			<path class="st7" d="M15.8,8.1c0.3,0.1,0.6,0.3,0.9,0.4c-0.4,0.5-0.7,1-1.1,1.5C15.6,9.3,15.7,8.7,15.8,8.1L15.8,8.1z"/>
			<path class="st15" d="M19.7,1.3c0.1,0,0.2,0.1,0.3,0.1c-0.5,0.1-1.1,0.2-1.6,0.4c0-0.2-0.1-0.4-0.1-0.7c0.4,0,0.7,0,1,0
				C19.5,1.1,19.6,1.2,19.7,1.3L19.7,1.3z"/>
			<path class="st18" d="M15.6,11.2c0.1,0.3,0.1,0.6,0.2,0.9C15.8,11.8,15.7,11.5,15.6,11.2z"/>
			<path class="st18" d="M18.4,1.1c0,0.2,0.1,0.4,0.1,0.7c0,0.1-0.1,0.2-0.1,0.3c-0.1,0-0.2,0-0.3,0c0-0.3,0-0.7,0-1
				C18.2,1,18.3,1.1,18.4,1.1z"/>
			<path class="st7" d="M22.6,2c0-0.1,0-0.2,0-0.2c0.2,0.1,0.4,0.1,0.7,0.2C23,2,22.8,2,22.6,2L22.6,2z"/>
			<path class="st24" d="M28.5,4.8c-0.1-0.1-0.2-0.2-0.3-0.3C28.2,4.6,28.4,4.7,28.5,4.8z"/>
			<path class="st7" d="M23.9,2c0.1-0.1,0.2-0.1,0.4-0.2C24.1,1.8,24,1.9,23.9,2z"/>
			<path class="st19" d="M12.5,4.9c0-0.1,0-0.3-0.1-0.4c0-0.1,0.1-0.1,0.1-0.2c0.1,0,0.2,0.1,0.3,0c0,0.2,0,0.4,0,0.5
				C12.7,4.9,12.6,4.9,12.5,4.9L12.5,4.9z"/>
			<path class="st20" d="M12.8,4.5c-0.1,0-0.2,0-0.3,0c0-0.1,0-0.2,0.1-0.3C12.7,4.3,12.8,4.4,12.8,4.5z"/>
			<path class="st9" d="M19.7,1.3c-0.1-0.1-0.2-0.1-0.3-0.2c0.1,0,0.3,0,0.4,0C19.8,1.1,19.8,1.2,19.7,1.3z"/>
			<path class="st29" d="M29.7,0.8c-0.2,0-0.5,0-0.7,0C29.3,0.8,29.5,0.8,29.7,0.8z"/>
			<path class="st27" d="M43.7,28.6c-0.1-1.7-0.7-2.1-2.7-2.3c-1.4-0.1-2.7-0.6-4.1-0.9c0.2,0,0.4-0.1,0.7-0.1
				c0.9-0.2,1.7-0.4,2.6-0.6c2,0.3,3.5-0.8,5.2-1.7c0.3,0,0.7,0,1,0l0.7,2.6C45.8,26.7,44.8,27.7,43.7,28.6z"/>
			<path class="st15" d="M46.9,25.8c-0.2-0.9-0.4-1.7-0.7-2.6c0.7-1.2,1.9-0.9,2.9-0.9c0,0.3,0,0.6,0.1,0.9
				C48.5,24.1,47.7,24.9,46.9,25.8z"/>
			<path class="st27" d="M24.5,35.5c0.3-1.7,1-2.5,3-1.9c1,0.3,2.1,0.1,3.2,0.1c-0.4,0.5-0.9,1-1.3,1.5c-1.1,0.1-2.2,0.3-3.2,0.4
				C25.6,35.6,25,35.6,24.5,35.5L24.5,35.5z"/>
			<path class="st15" d="M29.4,35.2c0.4-0.5,0.9-1,1.3-1.5c0.2,0,0.4,0,0.6,0c0.2-0.1,0.4-0.2,0.7-0.3c1.4-0.1,2.8-0.2,4.2-0.3
				c-0.7,0.5-1.4,1.1-2,1.6c-0.2,0-0.4,0.1-0.6,0.1c-0.1,0-0.1-0.1-0.2-0.1C32,34.8,30.7,35,29.4,35.2L29.4,35.2z"/>
			<path class="st0" d="M33.4,34.6c0.1,0.1,0.1,0.1,0.2,0.1c-0.1,0.1-0.1,0.1-0.2,0.2C33.3,34.8,33.4,34.7,33.4,34.6z"/>
			<path class="st30" d="M33.7,14.5c0-0.1,0.1-0.2,0.1-0.3c0.1,0,0.1-0.1,0.2-0.1c1.5-0.6,1.1-2,1.2-3.1c0.2-1.7,0.9-2.5,2.7-2.7
				c0.4-0.1,0.8-0.4,1.2-0.6c0.3,0.1,0.6,0.2,1,0.3c0,0.1,0,0.2,0,0.3c0.2,1.1,0.6,2,1.9,2.3c0.3,0.1,0.8,0.4,0.8,0.6
				c0.4,1.4,0.8,2.9,1.2,4.3c-0.7,0.5-1,1-0.2,1.6c0.6,0.4,1.4,0.9,1.9-0.3c1,0.3,1.9,0.5,2.9,0.8v2.7c0,0.1,0,0.2,0,0.2
				c-1.4,0.6-2.8,1.1-4.2,1.7c-1.4,0.3-2.8,0.7-4.2,1c-1,0.1-1.9,0.2-2.9,0.3c-0.8,0.1-1.5,0.2-2.3,0.3c-0.5,0-1.1-0.1-1.6-0.1
				c-1.4-2.3-1.7-4.5,0.1-6.7c0.1-0.1-0.3-0.6-0.4-0.9C33.2,15.7,33.5,15.1,33.7,14.5L33.7,14.5z"/>
			<path class="st12" d="M45.7,16.9c-0.4,1.2-1.3,0.7-1.9,0.3C43,16.6,43.3,16,44,15.6C45.1,15.3,45.3,16.2,45.7,16.9L45.7,16.9z"/>
			<path class="st7" d="M51.7,14.7c0,0.5,0,1,0.1,1.5c-0.3,0-0.7,0-1,0c-1.4-1-0.5-1.5,0.4-2c0.1,0,0.2,0.1,0.2,0.1
				C51.5,14.5,51.6,14.6,51.7,14.7L51.7,14.7z"/>
			<path class="st18" d="M50.8,16.3c0.3,0,0.7,0,1,0c-0.1,0.1-0.2,0.2-0.3,0.4C51.2,16.5,51,16.4,50.8,16.3z"/>
			<path class="st7" d="M44.3,22.3c1.4-0.6,2.8-1.1,4.2-1.7c0.2,0.6,0.5,1.1,0.7,1.7c-1.1,0-2.2-0.3-2.9,0.9c-0.3,0-0.7,0-1,0
				C45,22.9,44.6,22.6,44.3,22.3L44.3,22.3z"/>
			<path class="st25" d="M51.7,14.7c-0.1-0.1-0.2-0.3-0.3-0.4c0.1,0,0.3,0,0.4,0C51.8,14.5,51.8,14.6,51.7,14.7z"/>
			<path class="st29" d="M40.1,8.1c-0.3-0.1-0.6-0.2-1-0.3c-0.1-0.1-0.2-0.2-0.3-0.4c0-0.1,0-0.2,0-0.2c0.4,0,0.8,0,1.2,0
				C40.1,7.4,40.1,7.7,40.1,8.1L40.1,8.1z"/>
			<path class="st23" d="M38.8,7.4c0.1,0.1,0.2,0.2,0.3,0.4c-0.4,0.2-0.8,0.6-1.2,0.6c-1.8,0.2-2.5,1-2.7,2.7
				c-0.1,1.1,0.3,2.5-1.2,3.1c-0.2-0.5-0.4-1.1-0.6-1.6c0-0.2,0-0.4,0-0.6c0.1-0.4,0.4-0.8,0.4-1.3c0-0.9-0.3-1.8-0.3-2.6
				c-0.1-0.9,1.2-1.3,2.4-1C36.8,7.1,37.8,7.2,38.8,7.4L38.8,7.4z"/>
			<path class="st25" d="M33.1,11c-0.1-0.1-0.1-0.3-0.2-0.4C33,10.7,33.1,10.9,33.1,11z"/>
			<path class="st27" d="M14.5,29.9c0.6-1.4,1.2-2.8,1.9-4.2c0.3-0.5,0.7-1,1-1.5c0.7,0,1.5,0,2.2,0c1.2,0.5,2.4,1,3.6,1.6
				c0.4,0,0.9,0.1,1.3,0.1c-1.6,1.3-3.3,1.5-5.1,0.5c-1.1-0.6-1.6,0-2.1,1C16.8,28.6,16.6,30.3,14.5,29.9z"/>
			<path class="st19" d="M24.5,25.8c-0.4,0-0.9-0.1-1.3-0.1c-0.4-0.8-0.9-1.7-1.3-2.5c0.9,0.1,1.7,0.3,2.6,0.4
				c1,1.2,2.9,1.3,3.9,0.2c1.3,0,2.6,0.1,3.9,0.1c-0.1,0.6-0.2,1.2-0.3,1.8C29.5,25.8,27,25.8,24.5,25.8L24.5,25.8z"/>
			<path class="st5" d="M32,25.7c0.1-0.6,0.2-1.2,0.3-1.8c0.3,0,0.6-0.1,1-0.1c0.5,0,1.1,0.1,1.6,0.1c0.1,0.6,0.2,1.2,0.3,1.8
				C34.2,25.7,33.1,25.7,32,25.7L32,25.7z"/>
			<path class="st12" d="M35.2,25.7c-0.1-0.6-0.2-1.2-0.3-1.8c0.8-0.1,1.5-0.2,2.3-0.3c0.1,0.6,0.2,1.2,0.3,1.8
				c-0.2,0-0.4,0.1-0.7,0.1C36.3,25.6,35.8,25.6,35.2,25.7z"/>
			<path class="st27" d="M32,33.4c-0.2,0.1-0.4,0.2-0.7,0.3C31.5,33.6,31.8,33.5,32,33.4z"/>
			<path class="st12" d="M19,18.2c-0.2-0.2-0.4-0.5-0.7-0.7c-0.1-0.1-0.2-0.2-0.3-0.2v0c-0.1-0.6-0.2-1.1-0.2-1.6
				c0.7-0.1,1.3-0.2,1.9-0.3c0.3,0.1,0.6,0.2,1,0.3c2.3,1.2,4.6,1.6,7.2,0.9c0.4,0,0.8-0.1,1.3-0.1c0.1,0,0.2,0,0.4,0.1
				c0.5-0.2,1-0.4,1.5-0.6c0.3,0.6,0.5,1.1,0.8,1.6c-0.5,1.2-1.5,1.6-2.8,1.6c-1.3-0.1-2.6,0-3.9,0C23,19.1,20.8,19.4,19,18.2
				L19,18.2z"/>
			<path class="st24" d="M20.6,15.7c-0.3-0.1-0.6-0.2-1-0.3c-2-2-1.2-4.4-1.2-6.7c0-0.2,0.6-0.3,0.9-0.5c0.2,1.5,1,2.1,2.8,2.1
				c0.3,0.2,0.5,0.3,0.8,0.5c-0.1,0.3-0.3,0.5-0.4,0.8c-1.1,0.1-2.4,0.1-2.7,1.3c-0.1,0.5,0.8,1.6,1.4,1.7c1,0.2,2.6,1.3,3-0.8
				c0.2-0.1,0.4-0.2,0.6-0.4c0.4,0.9,0.1,2.5,2,1.6c0.1,0.4,0.2,0.9,0.3,1.3c-1.4-0.2-2.7-0.4-4.1-0.5
				C22.2,15.7,21.4,15.7,20.6,15.7L20.6,15.7z"/>
			<path class="st29" d="M24.5,6.8c2.6,0.3,5.1,0.8,5.8,3.8c-0.4,0.2-0.8,0.4-1.3,0.6c-0.5,0.1-1.1,0.2-1.6,0.3c-0.2,0-0.5,0-0.7,0
				c-0.5-0.2-1-0.4-1.5-0.6l0,0.1c0.1-0.2,0.3-0.5,0.4-0.7c0-0.2-0.1-0.4-0.1-0.6c-0.4-0.7-0.9-1.5-1.3-2.2L24.5,6.8L24.5,6.8z"/>
			<path class="st27" d="M22.2,10.2c-1.8,0-2.5-0.6-2.8-2.1c0.8-0.6,1-2.1,2.5-1.5C22,6.8,22.2,7,22.3,7.2c0.3,0.4,0.5,0.9,0.8,1.3
				c0,0.1,0.1,0.3,0.1,0.4c-0.1,0.1-0.2,0.2-0.3,0.3c-0.1,0.1-0.2,0.2-0.3,0.4C22.5,9.8,22.3,10,22.2,10.2L22.2,10.2z"/>
			<path class="st18" d="M31.7,17.6c-0.2-0.5-0.5-1-0.8-1.6c-0.6,0.2-1,0.4-1.5,0.6c0-0.1,0-0.2,0-0.3c0.2-0.4,0.4-0.8,0.7-1.2
				c1,0,1.3-0.4,0.7-1.3c0.1-0.2,0.2-0.4,0.3-0.6c0.4,1.4,1.5,1.6,2.7,1.4c-0.2,0.6-0.5,1.2-0.7,1.8C32.6,16.7,32.1,17.1,31.7,17.6
				L31.7,17.6z"/>
			<path class="st24" d="M31,13.1c-0.1,0.2-0.2,0.4-0.3,0.6c-0.2,0.3-0.5,0.6-0.7,0.9c-0.1-0.3-0.2-0.7-0.3-1
				c-0.2-0.8-0.5-1.7-0.7-2.5c0.4-0.2,0.8-0.4,1.3-0.6C30.5,11.4,30.8,12.3,31,13.1L31,13.1z"/>
			<path class="st7" d="M23.1,8.5c-0.3-0.4-0.5-0.9-0.8-1.3c0.1-0.2,0.1-0.4,0.2-0.7c0.7-0.6,1.4-0.6,2,0.2
				c-0.1,0.2-0.2,0.4-0.3,0.6c-0.1,0-0.2,0-0.3,0c-0.2,0.1-0.4,0.2-0.6,0.3C23.2,8,23.1,8.3,23.1,8.5L23.1,8.5z"/>
			<path class="st24" d="M33.4,12.5c0.2,0.5,0.4,1.1,0.6,1.6c-0.1,0-0.1,0.1-0.2,0.1C33.5,13.6,32.5,13.3,33.4,12.5z"/>
			<path class="st20" d="M22.5,6.6c-0.1,0.2-0.1,0.4-0.2,0.7C22.2,7,22,6.8,21.9,6.6C22.1,6.6,22.3,6.6,22.5,6.6z"/>
			<path class="st9" d="M31.7,17.6c0.4-0.4,0.9-0.9,1.3-1.3c0.1,0.3,0.5,0.8,0.4,0.9c-1.9,2.2-1.5,4.4-0.1,6.7c-0.3,0-0.6,0.1-1,0.1
				c-1.3,0-2.6-0.1-3.9-0.1c-1.3-0.1-2.6-0.2-3.9-0.2c-0.9-0.1-1.7-0.3-2.6-0.4c-1.4-1.1-3.6-1.4-3.5-3.8c0.2-0.4,0.4-0.8,0.6-1.3
				c1.9,1.3,4,0.9,6,0.9c1.3,0,2.6,0,3.9,0C30.2,19.2,31.2,18.8,31.7,17.6L31.7,17.6z"/>
			<path class="st8" d="M19.7,24.2c-0.7,0-1.5,0-2.2,0C18.2,22.9,18.9,23.6,19.7,24.2z"/>
			<path class="st5" d="M18,17.2c0.1,0.1,0.2,0.2,0.3,0.2C18.2,17.4,18.1,17.3,18,17.2z"/>
			<path class="st12" d="M44.3,22.3c0.3,0.3,0.6,0.6,0.9,0.9c-1.6,0.9-3.2,1.9-5.2,1.7c0-0.5,0-1,0-1.5C41.5,23,42.9,22.6,44.3,22.3
				z"/>
			<path class="st31" d="M40.1,23.3c0,0.5,0,1,0,1.5c-0.9,0.2-1.7,0.4-2.6,0.6c-0.1-0.6-0.2-1.2-0.3-1.8
				C38.1,23.5,39.1,23.4,40.1,23.3L40.1,23.3z"/>
			<path class="st7" d="M24.5,23.6c1.3,0.1,2.6,0.2,3.9,0.2C27.4,24.9,25.5,24.8,24.5,23.6z"/>
			<path class="st25" d="M29.1,11.2c0.2,0.8,0.5,1.7,0.7,2.5c0.1,0.3,0.2,0.7,0.3,1c0,0.1,0,0.2,0,0.3c-0.2,0.4-0.4,0.8-0.7,1.2
				c-0.1,0.1-0.2,0.2-0.3,0.3c-0.4,0-0.8,0.1-1.3,0.1c-0.2-0.1-0.4-0.2-0.6-0.3c-0.1-0.4-0.2-0.9-0.3-1.3c0-0.9,0-1.9,0.1-2.8
				c0.2-0.2,0.4-0.4,0.6-0.6C28,11.4,28.5,11.3,29.1,11.2L29.1,11.2z"/>
			<path class="st29" d="M27.1,16.3c0.2,0.1,0.4,0.2,0.6,0.3c-2.5,0.7-4.9,0.3-7.2-0.9c0.8,0,1.6,0,2.4,0.1
				C24.4,15.9,25.8,16.1,27.1,16.3L27.1,16.3z"/>
			<path class="st29" d="M29,16.5c0.1-0.1,0.2-0.2,0.3-0.3c0,0.1,0,0.2,0,0.3C29.3,16.5,29.2,16.5,29,16.5L29,16.5z"/>
			<path class="st25" d="M24.2,13.8c-0.5,2.1-2,1-3,0.8c-0.6-0.1-1.5-1.2-1.4-1.7c0.3-1.3,1.6-1.3,2.7-1.3
				C22.5,12.7,22.7,13.7,24.2,13.8z"/>
			<path class="st15" d="M24.2,13.8c-1.5-0.1-1.7-1.1-1.7-2.2c0.1-0.3,0.3-0.5,0.4-0.8c0.4-0.2,0.8-0.3,1.2-0.4
				c0.2,0,0.4,0.1,0.6,0.1c0.2,0.2,0.3,0.4,0.5,0.5l0-0.1c-0.2,0.8-0.3,1.7-0.5,2.5C24.6,13.5,24.4,13.7,24.2,13.8L24.2,13.8z"/>
			<path class="st17" d="M24.8,13.4c0.2-0.8,0.3-1.7,0.5-2.5c0.5,0.2,1,0.4,1.5,0.6c0,0.2,0.1,0.4,0.1,0.6c0,0.9,0,1.9-0.1,2.8
				C24.9,16,25.1,14.3,24.8,13.4z"/>
			<path class="st18" d="M24.2,10.3c-0.4,0.1-0.8,0.3-1.2,0.4c-0.3-0.2-0.5-0.3-0.8-0.5c0.1-0.2,0.3-0.4,0.4-0.6
				c0.1-0.1,0.2-0.2,0.3-0.4C23,9.2,23.1,9.1,23.2,9C23.5,9.4,23.9,9.8,24.2,10.3L24.2,10.3z"/>
			<path class="st31" d="M24.2,10.3c-0.3-0.4-0.6-0.9-1-1.3c0-0.1-0.1-0.3-0.1-0.4c0-0.3,0.1-0.5,0.1-0.8c0.2-0.1,0.4-0.2,0.6-0.3
				c0.1,0,0.2,0,0.3,0c0.4,0.7,0.9,1.5,1.3,2.2c-0.2,0.3-0.5,0.5-0.7,0.8C24.6,10.4,24.4,10.3,24.2,10.3L24.2,10.3z"/>
			<path class="st7" d="M24.8,10.4c0.2-0.3,0.5-0.5,0.7-0.8c0,0.2,0.2,0.4,0.1,0.6c-0.1,0.3-0.3,0.5-0.4,0.7
				C25.1,10.8,24.9,10.6,24.8,10.4L24.8,10.4z"/>
			<path class="st24" d="M26.8,12.2c0-0.2-0.1-0.4-0.1-0.6c0.2,0,0.5,0,0.7,0C27.2,11.7,27,12,26.8,12.2z"/>
			<path class="st28" d="M22.9,9.3c-0.1,0.1-0.2,0.2-0.3,0.4C22.7,9.5,22.8,9.4,22.9,9.3z"/>
			<path class="st29" d="M30,15c0-0.1,0-0.2,0-0.3c0.2-0.3,0.5-0.6,0.7-0.9C31.3,14.6,31,15,30,15z"/>
			<path class="st12" d="M23.9,7.4c-0.2,0.1-0.4,0.2-0.6,0.3C23.4,7.6,23.7,7.5,23.9,7.4z"/>
		</g>
	</g>
</g>
</svg>
